{
  "accessors": [
    {
      "bufferView": 2,
      "componentType": 5126,
      "count": 16695,
      "max": [
        1.0648705959320068,
        1.0631366968154907,
        0.06653963029384613
      ],
      "min": [
        -1.0648705959320068,
        -1.0631366968154907,
        -0.06653963029384613
      ],
      "type": "VEC3"
    },
    {
      "bufferView": 2,
      "byteOffset": 200340,
      "componentType": 5126,
      "count": 16695,
      "max": [
        1.0,
        1.0,
        0.9999930262565613
      ],
      "min": [
        -1.0,
        -1.0,
        -0.9999728798866272
      ],
      "type": "VEC3"
    },
    {
      "bufferView": 1,
      "componentType": 5126,
      "count": 16695,
      "max": [
        0.5744080543518066,
        1.0000001192092896
      ],
      "min": [
        0.1666666567325592,
        0.0
      ],
      "type": "VEC2"
    },
    {
      "bufferView": 0,
      "componentType": 5125,
      "count": 84096,
      "type": "SCALAR"
    },
    {
      "bufferView": 2,
      "byteOffset": 400680,
      "componentType": 5126,
      "count": 10896,
      "max": [
        27.46728515625,
        27.438613891601563,
        0.6641937494277954
      ],
      "min": [
        -27.3968505859375,
        -27.425527572631836,
        -1.4370890855789185
      ],
      "type": "VEC3"
    },
    {
      "bufferView": 2,
      "byteOffset": 531432,
      "componentType": 5126,
      "count": 10896,
      "max": [
        0.9999985694885254,
        0.9999985098838806,
        1.0
      ],
      "min": [
        -0.9999985694885254,
        -0.9999985098838806,
        -1.0
      ],
      "type": "VEC3"
    },
    {
      "bufferView": 1,
      "byteOffset": 133560,
      "componentType": 5126,
      "count": 10896,
      "max": [
        1.0000001192092896,
        1.0000001192092896
      ],
      "min": [
        0.0,
        0.0
      ],
      "type": "VEC2"
    },
    {
      "bufferView": 0,
      "byteOffset": 336384,
      "componentType": 5125,
      "count": 56448,
      "type": "SCALAR"
    },
    {
      "bufferView": 2,
      "byteOffset": 662184,
      "componentType": 5126,
      "count": 11425,
      "max": [
        4.5012688636779785,
        1.8407896757125854,
        0.005844606552273035
      ],
      "min": [
        -4.5012688636779785,
        -6.037688732147217,
        -0.4959324896335602
      ],
      "type": "VEC3"
    },
    {
      "bufferView": 2,
      "byteOffset": 799284,
      "componentType": 5126,
      "count": 11425,
      "max": [
        1.0,
        1.0,
        1.0
      ],
      "min": [
        -1.0,
        -1.0,
        -1.0
      ],
      "type": "VEC3"
    },
    {
      "bufferView": 1,
      "byteOffset": 220728,
      "componentType": 5126,
      "count": 11425,
      "max": [
        1.0000001192092896,
        0.9256402850151062
      ],
      "min": [
        0.0,
        0.0
      ],
      "type": "VEC2"
    },
    {
      "bufferView": 0,
      "byteOffset": 562176,
      "componentType": 5125,
      "count": 54240,
      "type": "SCALAR"
    },
    {
      "bufferView": 2,
      "byteOffset": 936384,
      "componentType": 5126,
      "count": 2411,
      "max": [
        0.9615378379821777,
        0.8626673221588135,
        0.027545645833015442
      ],
      "min": [
        -0.961537778377533,
        -1.0604822635650635,
        -0.16864313185214996
      ],
      "type": "VEC3"
    },
    {
      "bufferView": 2,
      "byteOffset": 965316,
      "componentType": 5126,
      "count": 2411,
      "max": [
        0.9953701496124268,
        0.9954730272293091,
        -0.09503843635320663
      ],
      "min": [
        -0.9953701496124268,
        -0.9954184293746948,
        -1.0
      ],
      "type": "VEC3"
    },
    {
      "bufferView": 1,
      "byteOffset": 312128,
      "componentType": 5126,
      "count": 2411,
      "max": [
        0.24556481838226318,
        0.6835477352142334
      ],
      "min": [
        0.1250504106283188,
        0.5630283951759338
      ],
      "type": "VEC2"
    },
    {
      "bufferView": 0,
      "byteOffset": 779136,
      "componentType": 5125,
      "count": 12576,
      "type": "SCALAR"
    },
    {
      "bufferView": 2,
      "byteOffset": 994248,
      "componentType": 5126,
      "count": 324,
      "max": [
        0.49775514006614685,
        0.16615743935108185,
        -0.08948168158531189
      ],
      "min": [
        -0.4977579712867737,
        -0.16615603864192963,
        -0.09494287520647049
      ],
      "type": "VEC3"
    },
    {
      "bufferView": 2,
      "byteOffset": 998136,
      "componentType": 5126,
      "count": 324,
      "max": [
        0.029921183362603188,
        0.016666220501065254,
        0.9999986886978149
      ],
      "min": [
        -0.027881089597940445,
        -0.014499451965093613,
        0.9994133710861206
      ],
      "type": "VEC3"
    },
    {
      "bufferView": 1,
      "byteOffset": 331416,
      "componentType": 5126,
      "count": 324,
      "max": [
        1.0,
        0.6666666865348816
      ],
      "min": [
        0.0,
        0.3333333134651184
      ],
      "type": "VEC2"
    },
    {
      "bufferView": 0,
      "byteOffset": 829440,
      "componentType": 5125,
      "count": 486,
      "type": "SCALAR"
    },
    {
      "bufferView": 2,
      "byteOffset": 1002024,
      "componentType": 5126,
      "count": 1163,
      "max": [
        0.9935951828956604,
        0.9935952425003052,
        1.1850001811981201
      ],
      "min": [
        -0.9935951828956604,
        -0.9935951828956604,
        1.126386046409607
      ],
      "type": "VEC3"
    },
    {
      "bufferView": 2,
      "byteOffset": 1015980,
      "componentType": 5126,
      "count": 1163,
      "max": [
        1.0,
        1.0,
        1.0
      ],
      "min": [
        -1.0,
        -1.0,
        -6.191979082359467e-06
      ],
      "type": "VEC3"
    },
    {
      "bufferView": 1,
      "byteOffset": 334008,
      "componentType": 5126,
      "count": 1163,
      "max": [
        1.0000001192092896,
        1.0000001192092896
      ],
      "min": [
        0.0,
        0.75
      ],
      "type": "VEC2"
    },
    {
      "bufferView": 0,
      "byteOffset": 831384,
      "componentType": 5125,
      "count": 5376,
      "type": "SCALAR"
    }
  ],
  "asset": {
    "extras": {
      "author": "ijiklvn (https://sketchfab.com/kelvin-carvalho)",
      "license": "CC-BY-4.0 (http://creativecommons.org/licenses/by/4.0/)",
      "source": "https://sketchfab.com/3d-models/momo-steering-wheel-df0f19fdd8114f9a837025bdde98cc12",
      "title": "MOMO STEERING WHEEL"
    },
    "generator": "Sketchfab-13.7.0",
    "version": "2.0"
  },
  "bufferViews": [
    {
      "buffer": 0,
      "byteLength": 852888,
      "name": "floatBufferViews",
      "target": 34963
    },
    {
      "buffer": 0,
      "byteLength": 343312,
      "byteOffset": 852888,
      "byteStride": 8,
      "name": "floatBufferViews",
      "target": 34962
    },
    {
      "buffer": 0,
      "byteLength": 1029936,
      "byteOffset": 1196200,
      "byteStride": 12,
      "name": "floatBufferViews",
      "target": 34962
    }
  ],
  "buffers": [
    {
      "byteLength": 2226136,
      "uri": "scene.bin"
    }
  ],
  "images": [
    {
      "uri": "textures/momo-italy-1-logo-png-transparent_baseColor.png"
    }
  ],
  "materials": [
    {
      "name": "Material.001",
      "pbrMetallicRoughness": {
        "baseColorFactor": [
          0.0,
          0.0,
          0.0,
          1.0
        ],
        "metallicFactor": 0.2971437627238483
      }
    },
    {
      "doubleSided": true,
      "name": "Material.005",
      "pbrMetallicRoughness": {
        "baseColorFactor": [
          0.013961285824871085,
          0.013961285824871085,
          0.013961285824871085,
          1.0
        ],
        "metallicFactor": 0.6750496763418707,
        "roughnessFactor": 0.08114005680779224
      }
    },
    {
      "doubleSided": true,
      "name": "Material.002",
      "pbrMetallicRoughness": {
        "baseColorFactor": [
          0.2913532688861528,
          0.2913532688861528,
          0.2913532688861528,
          1.0
        ],
        "metallicFactor": 0.9066694298496909,
        "roughnessFactor": 0.17523862929867975
      }
    },
    {
      "doubleSided": true,
      "name": "Material.004",
      "pbrMetallicRoughness": {
        "baseColorFactor": [
          0.01274077779742873,
          0.01274077779742873,
          0.01274077779742873,
          1.0
        ],
        "roughnessFactor": 0.0933305701503091
      }
    },
    {
      "alphaCutoff": 0.23009593934000558,
      "alphaMode": "MASK",
      "doubleSided": true,
      "name": "momo-italy-1-logo-png-transparent",
      "pbrMetallicRoughness": {
        "baseColorTexture": {
          "index": 0
        },
        "metallicFactor": 0.49828723287537635,
        "roughnessFactor": 0.0
      }
    },
    {
      "doubleSided": true,
      "name": "Material.003",
      "pbrMetallicRoughness": {
        "baseColorFactor": [
          0.0,
          0.0,
          0.0,
          1.0
        ],
        "metallicFactor": 0.07771452255854494,
        "roughnessFactor": 0.2761882702880619
      }
    }
  ],
  "meshes": [
    {
      "name": "Torus.002_Material.001_0",
      "primitives": [
        {
          "attributes": {
            "NORMAL": 1,
            "POSITION": 0,
            "TEXCOORD_0": 2
          },
          "indices": 3,
          "material": 0,
          "mode": 4
        }
      ]
    },
    {
      "name": "Plane.002_Material.005_0",
      "primitives": [
        {
          "attributes": {
            "NORMAL": 5,
            "POSITION": 4,
            "TEXCOORD_0": 6
          },
          "indices": 7,
          "material": 1,
          "mode": 4
        }
      ]
    },
    {
      "name": "Plane.001_Material.002_0",
      "primitives": [
        {
          "attributes": {
            "NORMAL": 9,
            "POSITION": 8,
            "TEXCOORD_0": 10
          },
          "indices": 11,
          "material": 2,
          "mode": 4
        }
      ]
    },
    {
      "name": "Plane.001_Material.004_0",
      "primitives": [
        {
          "attributes": {
            "NORMAL": 13,
            "POSITION": 12,
            "TEXCOORD_0": 14
          },
          "indices": 15,
          "material": 3,
          "mode": 4
        }
      ]
    },
    {
      "name": "momo-italy-1-logo-png-transparent_momo-italy-1-logo-png-transparent_0",
      "primitives": [
        {
          "attributes": {
            "NORMAL": 17,
            "POSITION": 16,
            "TEXCOORD_0": 18
          },
          "indices": 19,
          "material": 4,
          "mode": 4
        }
      ]
    },
    {
      "name": "Cylinder.001_Material.003_0",
      "primitives": [
        {
          "attributes": {
            "NORMAL": 21,
            "POSITION": 20,
            "TEXCOORD_0": 22
          },
          "indices": 23,
          "material": 5,
          "mode": 4
        }
      ]
    }
  ],
  "nodes": [
    {
      "children": [
        1
      ],
      "matrix": [
        1.0,
        0.0,
        0.0,
        0.0,
        0.0,
        2.220446049250313e-16,
        -1.0,
        0.0,
        0.0,
        1.0,
        2.220446049250313e-16,
        0.0,
        0.0,
        0.0,
        0.0,
        1.0
      ],
      "name": "Sketchfab_model"
    },
    {
      "children": [
        2
      ],
      "matrix": [
        0.009999999776482582,
        0.0,
        0.0,
        0.0,
        0.0,
        0.0,
        0.009999999776482582,
        0.0,
        0.0,
        -0.009999999776482582,
        0.0,
        0.0,
        0.0,
        0.0,
        0.0,
        1.0
      ],
      "name": "c2f9501300c846d59564c4405be0e218.fbx"
    },
    {
      "children": [
        3,
        5,
        7,
        10,
        12
      ],
      "name": "RootNode"
    },
    {
      "children": [
        4
      ],
      "matrix": [
        207.1793975830078,
        0.0,
        0.0,
        0.0,
        0.0,
        207.1793975830076,
        9.056099828812388e-06,
        0.0,
        0.0,
        -9.056099828812388e-06,
        207.1793975830076,
        0.0,
        0.0,
        0.0,
        -1.8453598022460938,
        1.0
      ],
      "name": "Torus.002"
    },
    {
      "mesh": 0,
      "name": "Torus.002_Material.001_0"
    },
    {
      "children": [
        6
      ],
      "matrix": [
        1.5461665391921997,
        0.0,
        0.0,
        0.0,
        0.0,
        1.5461665391921982,
        6.758508595059204e-08,
        0.0,
        0.0,
        -6.758508595059204e-08,
        1.5461665391921982,
        0.0,
        -0.010726802051067352,
        -2.878493070602417,
        2.9570157527923584,
        1.0
      ],
      "name": "Plane.002"
    },
    {
      "mesh": 1,
      "name": "Plane.002_Material.005_0"
    },
    {
      "children": [
        8,
        9
      ],
      "matrix": [
        29.183021545410156,
        0.0,
        0.0,
        0.0,
        0.0,
        29.183021545410128,
        1.275630386151662e-06,
        0.0,
        0.0,
        -1.275630386151662e-06,
        29.183021545410128,
        0.0,
        0.0,
        0.0,
        2.713737726211548,
        1.0
      ],
      "name": "Plane.001"
    },
    {
      "mesh": 2,
      "name": "Plane.001_Material.002_0"
    },
    {
      "mesh": 3,
      "name": "Plane.001_Material.004_0"
    },
    {
      "children": [
        11
      ],
      "matrix": [
        36.82303237915039,
        0.0,
        0.0,
        0.0,
        0.0,
        36.823032379150355,
        1.6095858662201657e-06,
        0.0,
        0.0,
        -1.6095858662201657e-06,
        36.823032379150355,
        0.0,
        0.09188742935657501,
        -2.7566230297088623,
        5.922945499420166,
        1.0
      ],
      "name": "momo-italy-1-logo-png-transparent"
    },
    {
      "mesh": 4,
      "name": "momo-italy-1-logo-png-transparent_momo-italy-1-logo-png-transparent_0"
    },
    {
      "children": [
        13
      ],
      "matrix": [
        34.876487731933594,
        0.0,
        0.0,
        0.0,
        0.0,
        34.87648773193356,
        1.5244998212343762e-06,
        0.0,
        0.0,
        -1.5244998212343762e-06,
        34.87648773193356,
        0.0,
        -0.054025858640670776,
        -2.969818592071533,
        -38.40974044799805,
        1.0
      ],
      "name": "Cylinder.001"
    },
    {
      "mesh": 5,
      "name": "Cylinder.001_Material.003_0"
    }
  ],
  "samplers": [
    {
      "magFilter": 9729,
      "minFilter": 9987,
      "wrapS": 10497,
      "wrapT": 10497
    }
  ],
  "scene": 0,
  "scenes": [
    {
      "name": "Sketchfab_Scene",
      "nodes": [
        0
      ]
    }
  ],
  "textures": [
    {
      "sampler": 0,
      "source": 0
    }
  ]
}
